<?xml version="1.0" encoding="utf-8"?>
<!-- Svg Vector Icons : http://www.onlinewebfonts.com/icon -->
<!DOCTYPE svg PUBLIC "-//W3C//DTD SVG 1.1//EN" "http://www.w3.org/Graphics/SVG/1.1/DTD/svg11.dtd">
<svg version="1.1" xmlns="http://www.w3.org/2000/svg" xmlns:xlink="http://www.w3.org/1999/xlink" x="0px" y="0px" viewBox="0 0 1000 1000" enable-background="new 0 0 1000 1000" xml:space="preserve">
<metadata> Svg Vector Icons : http://www.onlinewebfonts.com/icon </metadata>
<g><g fill="#000" transform="translate(0.000000,511.000000) scale(0.100000,-0.100000)"><path d="M4665.3,4994.9c-640.4-39.6-1192.3-188.6-1804.7-486.7c-989.7-482-1774.4-1262.1-2258.8-2247.1C-592.7-169.9,418-3104,2860.7-4293.9c707.9-347,1343.6-491.3,2130.7-491.3c603.1,0,1054.9,74.5,1606.7,263.1c1513.6,517,2724.5,1814,3132,3355.5c90.8,337.6,128.1,561.2,156,940.8c104.8,1343.6-386.6,2703.5-1334.3,3697.8C7524.9,4547.8,6148.7,5088.1,4665.3,4994.9z M5573.5,4855.2c1241.1-153.7,2391.5-789.4,3150.6-1741.8c756.8-950.1,1138.7-2177.3,1043.2-3350.9C9583.4-2521.8,7897.5-4319.5,5648-4629.2c-302.7-41.9-924.5-48.9-1215.5-11.6C2597.5-4415,1072.3-3183.2,476.2-1450.7c-528.6,1543.9-230.5,3274,784.7,4547.8c761.5,954.7,1911.8,1599.8,3139,1758.1C4630.4,4883.2,5343,4885.5,5573.5,4855.2z"/><path d="M2842,2256.5c-9.3-7-16.3-25.6-16.3-39.6s468.1-493.7,1040.9-1066.5L4909.8,107.2L3866.6-936.1c-791.7-791.7-1038.5-1052.5-1026.9-1082.8c7-21,25.6-39.6,41.9-39.6c14,0,493.7,468.1,1066.5,1040.9L4991.3,25.7l1045.6-1045.5C7056.8-2039.8,7157-2128.3,7157-2002.5c0,16.3-468,500.6-1040.9,1073.5L5077.5,111.8L6120.7,1155c1012.9,1012.9,1106.1,1117.7,985,1117.7c-16.3,0-498.3-468.1-1071.2-1040.9L4996,193.3L3955.1,1231.9c-572.8,572.8-1054.9,1040.9-1068.8,1040.9C2870,2272.8,2849,2265.8,2842,2256.5z"/></g></g>
</svg>