<?xml version="1.0" standalone="no"?>
<!DOCTYPE svg PUBLIC "-//W3C//DTD SVG 20010904//EN"
 "http://www.w3.org/TR/2001/REC-SVG-20010904/DTD/svg10.dtd">
<svg version="1.0" xmlns="http://www.w3.org/2000/svg"
 width="269.000000pt" height="269.000000pt" viewBox="0 0 269.000000 269.000000"
 preserveAspectRatio="xMidYMid meet">

<g transform="translate(0.000000,269.000000) scale(0.100000,-0.100000)"
fill="#fff" stroke="none">
<path d="M1530 1945 l-695 -695 -63 -238 c-34 -130 -62 -243 -62 -250 0 -20
38 -52 64 -52 12 0 124 27 247 60 l223 59 698 698 c611 611 698 702 698 728 0
25 -27 57 -178 207 -150 150 -182 178 -207 178 -26 0 -119 -89 -725 -695z
m840 420 l115 -115 -650 -650 -650 -649 -152 -42 c-84 -24 -156 -39 -160 -36
-3 4 12 76 36 160 l42 152 647 648 c356 356 649 647 652 647 3 0 57 -52 120
-115z"/>
<path d="M243 2300 c-12 -5 -26 -18 -32 -29 -8 -13 -11 -332 -11 -1023 0 -892
2 -1006 16 -1026 l15 -22 1023 0 c978 0 1024 1 1039 18 15 17 17 73 17 604 0
554 -1 586 -18 601 -24 22 -65 21 -85 -1 -15 -17 -17 -70 -17 -555 l0 -537
-935 0 -935 0 0 925 0 925 585 0 586 0 24 25 c30 29 31 45 6 76 l-19 24 -619
2 c-344 1 -628 -2 -640 -7z"/>
</g>
</svg>
