<?xml version="1.0" standalone="no"?>
<!DOCTYPE svg PUBLIC "-//W3C//DTD SVG 20010904//EN"
 "http://www.w3.org/TR/2001/REC-SVG-20010904/DTD/svg10.dtd">
<svg version="1.0" xmlns="http://www.w3.org/2000/svg"
 width="1000.000000pt" height="260.000000pt" viewBox="0 0 1000.000000 260.000000"
 preserveAspectRatio="xMidYMid meet">

<g transform="translate(0.000000,260.000000) scale(0.100000,-0.100000)"
fill="#000000" stroke="none">
<path d="M4985 1955 c-258 -48 -395 -206 -383 -440 4 -68 10 -95 37 -149 56
-114 140 -168 376 -240 171 -53 265 -95 295 -133 52 -66 45 -162 -16 -220 -41
-38 -88 -53 -169 -53 -107 1 -183 55 -206 146 l-11 44 -160 0 -159 0 6 -37
c35 -206 146 -322 365 -380 104 -27 274 -23 377 11 187 61 302 201 311 382 5
95 -15 176 -59 240 -60 88 -152 139 -374 209 -178 56 -231 81 -273 130 -27 30
-32 44 -32 88 0 70 26 115 81 145 37 20 56 23 114 20 110 -5 185 -58 202 -140
l6 -28 162 0 162 0 -9 53 c-14 79 -59 166 -114 221 -115 116 -328 169 -529
131z"/>
<path d="M1330 1225 l0 -735 210 0 210 0 0 393 1 392 28 -75 c15 -41 76 -218
135 -392 l108 -318 173 0 173 0 108 318 c59 174 120 351 135 392 l28 75 1
-392 0 -393 205 0 205 0 0 735 0 735 -247 -2 -247 -3 -174 -460 c-95 -253
-176 -463 -180 -467 -4 -4 -88 203 -188 460 l-180 467 -252 3 -252 2 0 -735z"/>
<path d="M540 1765 l0 -185 275 0 275 0 0 185 0 185 -70 0 -70 0 0 -101 0
-100 -37 3 -38 3 -3 83 -3 82 -59 0 -59 0 -3 -82 -3 -83 -32 -3 -33 -3 0 100
0 101 -70 0 -70 0 0 -185z"/>
<path d="M3222 1448 c3 -439 6 -510 21 -561 29 -97 69 -168 136 -239 71 -76
158 -125 271 -155 86 -22 261 -22 355 1 171 41 312 149 379 289 62 130 66 171
66 697 l0 470 -180 0 -180 0 0 -463 c0 -534 -1 -542 -76 -614 -50 -49 -93 -63
-189 -63 -110 1 -181 43 -222 135 -16 36 -18 83 -21 523 l-3 482 -180 0 -180
0 3 -502z"/>
<path d="M5840 1215 l0 -725 405 0 406 0 -3 98 -3 97 -277 3 -278 2 0 215 0
215 248 2 247 3 3 98 3 97 -251 0 -250 0 0 210 0 210 278 2 277 3 3 98 3 97
-406 0 -405 0 0 -725z"/>
<path d="M6862 1428 c4 -450 6 -520 22 -573 53 -186 157 -296 329 -350 270
-86 565 10 680 222 15 28 36 86 47 129 19 72 20 112 20 581 l0 503 -94 0 -95
0 -3 -517 c-3 -517 -3 -518 -27 -577 -60 -150 -207 -222 -396 -195 -109 15
-176 55 -230 137 -52 79 -55 115 -55 654 l0 498 -101 0 -100 0 3 -512z"/>
<path d="M8207 1924 c-4 -4 -7 -328 -7 -721 l0 -713 75 0 75 0 2 567 3 566
254 -566 254 -567 56 0 56 0 250 562 250 561 3 -561 2 -562 75 0 75 0 0 720 0
720 -78 0 -78 0 -16 -32 c-8 -18 -131 -294 -273 -613 -142 -319 -261 -583
-264 -587 -3 -4 -130 271 -281 610 l-276 617 -75 3 c-41 1 -78 0 -82 -4z"/>
<path d="M540 1415 l0 -84 98 -3 97 -3 3 -82 3 -83 -101 0 -100 0 0 -85 0 -85
275 0 275 0 0 85 0 84 -107 3 -108 3 0 80 0 80 108 3 107 3 0 84 0 85 -275 0
-275 0 0 -85z"/>
<path d="M540 710 l0 -230 65 0 65 0 0 70 0 70 210 0 210 0 0 85 0 85 -207 2
-208 3 -3 73 -3 72 -64 0 -65 0 0 -230z"/>
</g>
</svg>
