<?xml version="1.0" standalone="no"?>
<!DOCTYPE svg PUBLIC "-//W3C//DTD SVG 20010904//EN"
 "http://www.w3.org/TR/2001/REC-SVG-20010904/DTD/svg10.dtd">
<svg version="1.0" xmlns="http://www.w3.org/2000/svg"
 width="669.000000pt" height="669.000000pt" viewBox="0 0 669.000000 669.000000"
 preserveAspectRatio="xMidYMid meet">

<g transform="translate(0.000000,669.000000) scale(0.100000,-0.100000)"
fill="#fff" stroke="none">
<path d="M20 3340 l0 -3330 3330 0 3330 0 0 1250 0 1250 -415 0 -415 0 0 -835
0 -835 -2500 0 -2500 0 0 2500 0 2500 835 0 835 0 0 415 0 415 -1250 0 -1250
0 0 -3330z"/>
<path d="M4125 6080 l590 -590 -890 -890 -890 -890 393 -392 392 -393 890 890
890 890 590 -590 590 -590 0 1573 0 1572 -1572 0 -1573 0 590 -590z"/>
</g>
</svg>
